<?xml version="1.0" standalone="no"?>
<!DOCTYPE svg PUBLIC "-//W3C//DTD SVG 20010904//EN"
 "http://www.w3.org/TR/2001/REC-SVG-20010904/DTD/svg10.dtd">
<svg version="1.0" xmlns="http://www.w3.org/2000/svg"
 width="227.000000pt" height="227.000000pt" viewBox="0 0 227.000000 227.000000"
 preserveAspectRatio="xMidYMid meet">
<metadata>
Created by potrace 1.11, written by Peter Selinger 2001-2013
</metadata>
<g transform="translate(0.000000,227.000000) scale(0.100000,-0.100000)"
fill="#000000" stroke="none">
<path d="M1084 2249 c-156 -26 -279 -139 -319 -294 -11 -45 -15 -114 -15 -282
l0 -223 396 0 395 0 -3 253 -3 253 -38 76 c-79 160 -241 245 -413 217z m-40
-121 c14 -23 -3 -52 -33 -56 -42 -6 -67 38 -39 66 17 17 58 11 72 -10z m140 0
c14 -23 -3 -52 -33 -56 -42 -6 -67 38 -39 66 17 17 58 11 72 -10z m141 2 c11
-35 -3 -60 -35 -60 -36 0 -56 30 -40 60 7 13 21 20 40 20 20 0 31 -6 35 -20z
m-425 -139 c15 -29 13 -39 -14 -56 -31 -21 -66 -5 -66 28 0 46 59 66 80 28z
m138 7 c29 -29 -7 -86 -47 -73 -26 8 -38 50 -21 70 15 18 51 20 68 3z m142 -3
c17 -20 5 -62 -21 -70 -24 -8 -59 19 -59 45 0 37 55 55 80 25z m138 3 c19 -19
14 -56 -8 -68 -38 -21 -80 22 -60 61 12 21 50 25 68 7z m136 6 c24 -9 21 -61
-4 -74 -30 -16 -60 4 -60 39 0 15 3 31 7 34 8 9 36 9 57 1z m-560 -150 c21
-21 20 -37 -4 -59 -41 -37 -97 24 -58 63 17 17 44 15 62 -4z m146 -4 c21 -40
-9 -78 -51 -65 -24 8 -35 50 -19 70 18 22 57 19 70 -5z m138 8 c19 -19 14 -56
-8 -68 -43 -23 -83 17 -60 60 12 22 49 27 68 8z m140 0 c39 -39 -17 -100 -58
-63 -24 22 -25 38 -4 59 18 19 45 21 62 4z m142 -2 c28 -35 -11 -93 -47 -70
-36 22 -23 84 17 84 10 0 23 -7 30 -14z m-566 -142 c9 -8 16 -22 16 -29 0 -7
-7 -21 -16 -29 -30 -30 -74 -13 -74 29 0 42 44 59 74 29z m140 0 c9 -8 16 -22
16 -29 0 -19 -28 -45 -49 -45 -39 0 -57 60 -23 79 24 15 38 13 56 -5z m137 6
c35 -19 18 -80 -22 -80 -21 0 -49 26 -49 45 0 16 27 45 41 45 6 0 19 -5 30
-10z m147 -2 c17 -17 15 -53 -3 -68 -20 -17 -62 -5 -70 21 -13 40 44 76 73 47z
m142 -2 c28 -35 -11 -93 -47 -70 -36 22 -23 84 17 84 10 0 23 -7 30 -14z
m-565 -146 c37 -41 -24 -97 -63 -58 -18 18 -15 55 6 67 25 15 37 13 57 -9z
m139 4 c30 -30 13 -74 -29 -74 -42 0 -59 44 -29 74 8 9 22 16 29 16 7 0 21 -7
29 -16z m140 0 c19 -18 21 -45 4 -62 -39 -39 -100 17 -63 58 22 24 38 25 59 4z
m137 6 c21 -12 25 -50 7 -68 -39 -39 -100 17 -63 58 21 23 29 24 56 10z m140
0 c23 -13 25 -52 4 -70 -8 -7 -25 -10 -40 -6 -19 5 -25 13 -25 34 0 27 15 52
33 52 4 0 17 -5 28 -10z"/>
<path d="M730 1250 l0 -150 85 0 84 0 44 -43 c52 -53 117 -77 202 -77 86 0
150 24 201 77 l42 43 86 0 86 0 0 150 0 150 -415 0 -415 0 0 -150z"/>
<path d="M552 1358 c-8 -8 -12 -47 -12 -110 0 -87 2 -99 20 -110 18 -12 20
-24 20 -133 1 -158 20 -261 66 -354 47 -96 142 -192 239 -243 64 -33 93 -43
178 -62 26 -6 27 -8 27 -81 l0 -75 -88 0 c-93 0 -163 -17 -217 -53 -47 -31
-95 -79 -111 -109 l-15 -28 486 0 c288 0 485 4 485 9 0 24 -106 122 -158 148
-49 23 -73 28 -164 31 l-108 4 0 74 c0 72 1 74 28 79 229 49 375 176 455 395
16 44 21 89 25 219 4 143 7 166 23 182 16 16 19 34 19 105 0 115 -6 124 -80
124 l-60 0 0 -120 c0 -100 3 -120 15 -120 13 0 15 -21 15 -127 0 -72 -7 -158
-14 -195 -69 -322 -419 -490 -706 -337 -80 43 -131 88 -179 160 -65 98 -81
164 -81 345 0 96 4 154 10 154 6 0 10 47 10 120 l0 120 -58 0 c-32 0 -63 -5
-70 -12z"/>
<path d="M482 1309 c-28 -11 -46 -50 -38 -83 6 -25 51 -64 62 -54 3 3 4 37 2
75 -3 68 -4 70 -26 62z"/>
<path d="M1780 1240 c0 -70 0 -71 23 -59 12 7 25 17 29 23 14 21 8 73 -10 89
-34 31 -42 21 -42 -53z"/>
<path d="M750 962 c0 -149 35 -244 121 -331 128 -128 345 -147 497 -44 63 43
103 92 139 170 23 50 28 75 31 176 l4 117 -75 0 c-57 0 -76 -4 -81 -15 -8 -21
-93 -73 -140 -86 -21 -6 -72 -10 -113 -10 -85 0 -172 33 -219 82 -25 26 -34
29 -96 29 l-68 0 0 -88z"/>
</g>
</svg>
