<?xml version="1.0" standalone="no"?>
<!DOCTYPE svg PUBLIC "-//W3C//DTD SVG 20010904//EN"
 "http://www.w3.org/TR/2001/REC-SVG-20010904/DTD/svg10.dtd">
<svg version="1.0" xmlns="http://www.w3.org/2000/svg"
 width="270.000000pt" height="270.000000pt" viewBox="0 0 270.000000 270.000000"
 preserveAspectRatio="xMidYMid meet">
<metadata>
Created by potrace 1.11, written by Peter Selinger 2001-2013
</metadata>
<g transform="translate(0.000000,270.000000) scale(0.100000,-0.100000)"
fill="#000000" stroke="none">
<path d="M1167 2685 c-147 -21 -268 -59 -412 -130 -269 -132 -477 -338 -609
-602 -162 -325 -185 -718 -60 -1063 113 -315 361 -592 667 -746 93 -48 253
-99 362 -118 118 -21 355 -21 471 -1 416 73 781 347 973 732 137 275 173 609
99 913 -124 506 -524 891 -1041 1000 -123 27 -325 33 -450 15z m419 -447 c65
-83 124 -159 130 -167 9 -11 15 -12 25 -5 17 13 199 75 199 67 0 -2 -59 -68
-131 -146 -91 -99 -126 -143 -114 -145 9 -2 22 1 29 7 9 7 65 0 196 -25 102
-19 190 -33 197 -32 7 2 -35 61 -92 131 -65 81 -102 134 -98 143 3 8 10 13 14
12 5 -2 60 -71 122 -153 94 -126 117 -151 146 -158 l34 -8 -27 -28 c-18 -19
-26 -38 -26 -62 0 -36 -33 -78 -72 -92 -15 -5 -18 -19 -18 -83 l0 -76 -127 6
c-71 4 -140 9 -155 12 l-28 6 0 152 0 152 -45 12 c-61 16 -110 15 -192 -4 -67
-15 -68 -15 -85 6 -14 18 -35 24 -100 32 -271 31 -573 69 -576 73 -8 8 14 27
205 175 109 85 253 198 321 252 67 54 129 98 136 98 7 0 67 -68 132 -152z
m-265 115 c6 -6 -10 -25 -50 -56 -33 -26 -62 -47 -65 -47 -3 0 -6 28 -6 61 l0
61 55 -4 c31 -3 60 -9 66 -15z m-611 -303 c101 -11 185 -22 187 -24 6 -5 -123
-122 -172 -156 -40 -28 -53 -31 -105 -29 -45 2 -63 -2 -73 -13 -19 -25 -106
-53 -119 -40 -18 18 59 282 82 282 9 0 99 -9 200 -20z m50 -430 l0 -200 -35 0
-35 0 0 178 c0 97 4 182 8 189 6 9 38 27 60 32 1 1 2 -89 2 -199z m-190 -14
l0 -194 -57 -19 -58 -20 -3 -86 c-2 -76 -5 -87 -23 -92 -19 -6 -20 -14 -18
-261 1 -243 2 -254 21 -254 10 0 21 7 24 15 9 23 61 19 69 -6 5 -16 10 -18 21
-8 11 9 14 58 14 260 0 137 4 249 8 249 15 0 42 -234 42 -357 0 -111 2 -123
18 -123 10 0 27 20 45 53 l27 52 0 231 c0 155 -4 234 -11 241 -18 18 -2 31 51
38 28 4 53 13 58 20 6 10 65 8 307 -11 165 -13 449 -35 630 -49 182 -15 399
-33 484 -41 85 -8 159 -14 165 -14 6 0 -22 21 -63 47 -99 62 -76 66 30 5 l84
-48 3 -318 c2 -299 1 -317 -15 -314 -17 3 -18 25 -21 291 -2 279 -3 287 -22
287 -19 0 -20 -7 -20 -145 l0 -145 -85 0 c-69 0 -85 -3 -85 -15 0 -12 16 -15
85 -15 l85 0 0 -59 0 -58 -87 -7 c-96 -7 -328 -7 -355 1 -19 5 -23 20 -10 41
10 16 42 5 42 -14 0 -9 12 -14 35 -14 35 0 35 0 35 45 0 34 -5 47 -20 55 -11
6 -23 22 -26 35 -7 28 -31 39 -66 30 -23 -6 -24 -8 -15 -53 6 -26 7 -64 3 -85
l-7 -37 -143 0 c-119 0 -145 -3 -150 -15 -3 -9 0 -15 9 -15 21 0 19 -54 -2
-91 -25 -42 -75 -63 -132 -54 -73 11 -102 10 -166 -8 -34 -10 -95 -17 -144
-17 -79 0 -84 1 -69 16 9 9 40 20 68 25 29 4 54 10 56 12 3 2 -1 28 -7 57 -6
28 -8 65 -5 81 l6 29 -55 0 c-57 0 -74 -10 -50 -30 20 -17 19 -80 -1 -109 -20
-29 -72 -51 -118 -51 -33 0 -66 21 -66 42 0 5 -8 21 -19 34 l-19 24 -15 -23
c-15 -21 -16 -19 -16 41 l-1 63 45 -2 c24 -2 48 0 51 4 4 4 -7 7 -24 7 -30 0
-32 2 -32 35 0 37 -2 39 -62 29 l-36 -6 19 -32 c14 -24 19 -50 19 -111 0 -58
3 -76 11 -65 8 12 10 12 7 -5 -4 -24 -60 -32 -231 -34 -84 -1 -121 3 -168 19
-33 12 -70 18 -80 15 -11 -4 -38 -4 -59 0 -33 6 -40 11 -40 29 0 13 9 31 20
41 11 10 20 28 20 41 0 23 24 54 41 54 7 0 10 110 8 307 l-2 307 42 15 41 15
0 164 c0 116 -3 161 -11 156 -8 -5 -8 -1 0 13 9 18 88 50 129 52 9 1 12 -44
12 -193z m1110 -81 c0 -157 -3 -225 -11 -225 -6 0 -42 16 -80 36 l-69 36 0
178 0 177 53 10 c28 6 64 11 80 12 l27 1 0 -225z m-450 180 c0 -20 -5 -25 -27
-26 -24 -2 -25 -2 -5 -6 15 -3 22 -11 22 -29 0 -26 -8 -28 -72 -18 -32 6 -38
11 -38 30 0 18 6 24 23 25 l22 2 -22 4 c-15 3 -23 12 -23 24 0 17 7 19 60 19
57 0 60 -1 60 -25z m0 -170 l0 -75 -44 0 c-73 0 -76 3 -76 81 l0 69 60 0 60 0
0 -75z m-700 -481 l0 -215 -27 3 -28 3 -3 201 c-2 200 -2 201 20 212 13 6 26
11 31 11 4 1 7 -96 7 -215z m1320 -364 c0 -6 44 -10 111 -10 71 0 108 -4 104
-10 -3 -5 -44 -10 -91 -10 -49 0 -84 -4 -84 -10 0 -6 49 -11 123 -12 l122 -2
-104 -5 c-71 -4 -106 -10 -109 -18 -2 -9 9 -13 35 -14 35 0 36 -1 16 -11 -13
-6 -23 -17 -23 -25 0 -16 2 -16 -70 4 l-60 16 0 59 c0 45 3 58 15 58 8 0 15
-4 15 -10z"/>
<path d="M1280 2144 c0 -20 4 -25 17 -20 21 9 33 -11 26 -45 -3 -15 0 -30 6
-33 7 -5 11 5 11 28 0 19 5 38 10 41 6 3 10 -5 10 -19 0 -31 9 -56 22 -56 5 0
8 24 6 53 -3 52 -3 52 -38 55 -19 2 -39 8 -44 13 -17 16 -26 10 -26 -17z"/>
<path d="M1460 2045 c0 -21 5 -25 30 -25 25 0 30 4 30 25 0 21 -5 25 -30 25
-25 0 -30 -4 -30 -25z"/>
<path d="M1287 2023 c-4 -3 -7 -26 -7 -49 0 -41 2 -44 38 -53 67 -19 72 -17
72 39 0 45 -3 52 -26 60 -29 11 -68 13 -77 3z"/>
<path d="M1420 1956 l0 -56 34 0 c19 0 41 -3 50 -6 13 -5 16 3 16 50 0 54 -1
56 -27 56 -16 0 -38 3 -50 6 -22 6 -23 4 -23 -50z"/>
<path d="M1820 1590 l0 -120 45 0 45 0 0 53 c0 50 -2 53 -32 66 -30 13 -31 14
-10 18 19 4 22 10 22 54 l0 49 -35 0 -35 0 0 -120z"/>
<path d="M1970 1662 c0 -35 25 -59 68 -68 35 -7 38 1 26 65 -6 29 -9 31 -50
31 -42 0 -44 -2 -44 -28z"/>
<path d="M1960 1517 l0 -55 50 -4 50 -3 0 47 c0 44 -1 47 -32 53 -18 4 -41 9
-50 11 -16 5 -18 -2 -18 -49z"/>
<path d="M890 1320 c58 -8 166 -13 159 -6 -2 2 -51 6 -109 9 -74 4 -89 3 -50
-3z"/>
<path d="M1088 1303 c18 -2 45 -2 60 0 15 2 0 4 -33 4 -33 0 -45 -2 -27 -4z"/>
<path d="M1223 1293 c15 -2 37 -2 50 0 12 2 0 4 -28 4 -27 0 -38 -2 -22 -4z"/>
<path d="M1348 1283 c12 -2 32 -2 45 0 12 2 2 4 -23 4 -25 0 -35 -2 -22 -4z"/>
<path d="M1368 1212 l-4 -29 106 -6 c59 -4 119 -11 133 -16 26 -10 26 -11 29
-128 l3 -118 38 -3 c24 -2 37 -8 37 -18 0 -11 -14 -14 -60 -14 -33 0 -60 -3
-60 -7 0 -17 18 -35 28 -29 6 3 13 -13 16 -38 8 -51 16 -56 92 -56 l54 0 0
199 c0 109 -3 212 -6 228 l-6 30 -156 12 c-87 7 -176 14 -198 17 -40 6 -42 5
-46 -24z"/>
<path d="M1020 1155 l0 -55 45 0 45 0 0 55 0 55 -45 0 -45 0 0 -55z"/>
<path d="M1140 1158 c0 -49 3 -56 23 -62 55 -15 64 -9 70 46 4 28 5 53 3 55
-1 2 -24 6 -49 9 l-47 7 0 -55z"/>
<path d="M1940 1055 l0 -95 95 0 95 0 0 89 0 88 -46 7 c-26 3 -69 6 -95 6
l-49 0 0 -95z m68 48 c3 -26 -1 -33 -15 -34 -16 0 -15 -2 3 -11 16 -7 21 -19
21 -49 0 -39 -1 -40 -31 -37 l-31 3 -3 83 -3 83 28 -3 c23 -2 29 -8 31 -35z
m112 -13 c0 -31 -4 -40 -17 -41 -17 -1 -17 -2 0 -6 12 -3 17 -15 17 -39 0 -33
-1 -34 -40 -34 l-40 0 0 40 c0 23 5 40 11 40 8 0 8 4 0 14 -7 8 -9 25 -5 40 5
22 12 26 40 26 33 0 34 -1 34 -40z"/>
<path d="M1020 1000 l0 -70 50 0 50 0 0 70 0 70 -50 0 -50 0 0 -70z"/>
<path d="M1142 1003 l3 -68 48 -3 47 -3 0 55 c0 45 -4 58 -22 70 -12 9 -35 16
-51 16 l-28 0 3 -67z"/>
</g>
</svg>
