<?xml version="1.0" standalone="no"?>
<!DOCTYPE svg PUBLIC "-//W3C//DTD SVG 20010904//EN"
 "http://www.w3.org/TR/2001/REC-SVG-20010904/DTD/svg10.dtd">
<svg version="1.0" xmlns="http://www.w3.org/2000/svg"
 width="300.000000pt" height="300.000000pt" viewBox="0 0 300.000000 300.000000"
 preserveAspectRatio="xMidYMid meet">
<metadata>
Created by potrace 1.11, written by Peter Selinger 2001-2013
</metadata>
<g transform="translate(0.000000,300.000000) scale(0.100000,-0.100000)"
fill="#000000" stroke="none">
<path d="M1394 2788 c-54 -39 -130 -94 -169 -123 -158 -119 -308 -224 -314
-221 -3 2 -6 47 -6 100 l1 96 -36 1 c-95 1 -273 -2 -279 -5 -4 -3 -6 -102 -6
-222 l1 -217 -105 -76 c-259 -189 -418 -307 -435 -323 -11 -10 -23 -18 -28
-18 -18 0 -6 -31 29 -78 l36 -50 51 36 c28 20 64 46 79 59 16 13 33 23 38 23
5 0 10 -328 11 -812 l3 -813 1238 -2 1237 -2 0 262 c0 144 0 511 0 815 0 444
2 552 12 546 7 -4 43 -29 79 -56 37 -26 70 -48 75 -48 8 0 53 57 77 96 5 9
-19 32 -75 73 -46 33 -87 64 -93 68 -5 5 -86 64 -180 132 -93 69 -384 280
-645 471 -261 190 -480 349 -486 353 -6 3 -55 -26 -110 -65z m498 -393 c84
-61 100 -77 125 -130 16 -33 145 -290 286 -571 l257 -510 -3 -113 -2 -113 -98
-51 c-96 -51 -98 -52 -112 -32 -8 11 -19 26 -25 33 -6 7 -17 31 -24 55 -7 23
-28 63 -47 89 -41 55 -91 146 -96 172 -2 10 -21 64 -44 119 -22 55 -42 122
-45 148 -4 46 -3 49 27 65 17 9 43 14 57 11 36 -7 86 43 77 75 -17 55 -34 55
-193 1 -46 -16 -122 -76 -163 -130 -19 -25 -34 -32 -72 -37 -27 -4 -83 -18
-125 -30 -43 -13 -88 -27 -102 -30 -38 -9 -48 -18 -65 -59 -15 -37 -15 -38 11
-62 39 -36 83 -33 118 6 26 29 32 31 75 25 35 -5 55 -1 82 13 42 22 67 27 92
16 19 -8 23 -50 7 -75 -6 -10 -4 -22 5 -37 88 -134 109 -264 58 -370 -63 -134
-235 -215 -438 -208 -283 11 -502 197 -610 522 -40 120 -49 173 -48 303 2 181
86 331 225 401 24 12 70 40 103 64 74 52 110 64 172 61 66 -4 119 -23 171 -59
59 -42 140 -150 147 -195 10 -64 27 -87 66 -90 48 -4 88 13 99 43 12 31 -21
128 -50 148 -10 7 -23 24 -29 37 -20 51 -94 245 -96 255 -18 92 -47 131 -102
141 -36 7 -82 -15 -84 -41 -1 -8 -2 -25 -3 -37 -1 -13 9 -46 23 -75 14 -29 22
-56 17 -60 -4 -4 -28 4 -54 19 -61 34 -151 52 -224 44 -32 -3 -62 -7 -66 -10
-11 -6 -38 11 -30 19 19 19 635 322 644 316 5 -3 53 -37 106 -76z m-1002 -386
c0 -6 -18 -29 -39 -51 -52 -52 -97 -123 -133 -211 -36 -88 -43 -133 -42 -262
1 -85 6 -115 33 -195 32 -94 93 -217 136 -275 13 -16 36 -55 51 -85 69 -134
197 -280 312 -357 79 -52 177 -83 264 -85 40 -1 84 2 96 6 19 7 23 5 20 -9 -2
-11 -56 -45 -148 -91 l-145 -73 -166 -1 -165 0 -113 227 c-62 126 -179 361
-262 523 l-149 294 0 223 c0 223 0 223 23 232 29 11 174 84 300 150 99 51 127
60 127 40z m1250 -1079 c16 -33 30 -68 30 -78 0 -10 11 -24 26 -31 14 -6 24
-17 22 -24 -4 -10 -146 -87 -230 -124 -43 -19 -41 0 3 48 62 67 90 120 96 186
5 63 9 83 18 83 2 0 18 -27 35 -60z"/>
</g>
</svg>
